# xmcd
#
# Track frame offsets:
#	150
#	14973
#	33560
#	51404
#	73648
#	95100
#	109326
#	126003
#	147061
#	164955
#	183978
#	203464
#
# Disc length: 2925 seconds
# Revision: 0
# Processed by: cddbd v1.5.2PL0 Copyright (c) Steve Scherf et al.
# Submitted via: dBpowerAMP V12.0
#
DISCID=b90b6b0c
DTITLE=Dan Weber - Ash and Bone
DYEAR=2012
DGENRE=Country
TTITLE0=Wishin's Just for Fools
TTITLE1=In Her Prime
TTITLE2=Hank and Jesus
TTITLE3=Goodbye To Dad
TTITLE4=Take the Central Georgia Home
TTITLE5=Crazy Love
TTITLE6=Gravity
TTITLE7=Sarah Ann
TTITLE8=Lost and Found
TTITLE9=Suicide Weather
TTITLE10=On The Way Home
TTITLE11=Three Wishes
EXTD=
EXTT0=
EXTT1=
EXTT2=
EXTT3=
EXTT4=
EXTT5=
EXTT6=
EXTT7=
EXTT8=
EXTT9=
EXTT10=
EXTT11=
PLAYORDER=
